PathFileType	4	(x/y/z)	S04_SL_Cal.trc
DataRate	CameraRate	NumFrames	NumMarkers	Units	OrigDataRate	OrigDataStartFrame	OrigNumFrames
240	240	5	51	mm	240	301	2400
Frame#	Time	Sternum			R.Acromium			L.Acromium			Top.Head			R.ASIS			L.ASIS			R.PSIS			L.PSIS			R.Great.Tro			L.Great.Tro			R.Iliac.Crest			L.Iliac.Crest			V.Sacral			R.Thigh.Upper.Post			R.Thigh.Lower.Ant			R.Thigh.Lower.Post			R.Thigh.Upper.Ant			R.Knee.Lat			R.Knee.Med			R.Shank.Upper.Post			R.Shank.Lower.Ant			R.Shank.Lower.Post			R.Shank.Upper.Ant			R.Ankle.Lat			R.Ankle.Med			R.Heel.Upper			R.Heel.Med			R.Heel.Lat			R.Toe.Lat			R.Toe.Med			R.Toe.Tip			L.Thigh.Upper.Post			L.Thigh.Lower.Ant			L.Thigh.Lower.Post			L.Thigh.Upper.Ant			L.Knee.Lat			L.Knee.Med			L.Shank.Upper.Post			L.Shank.Lower.Ant			L.Shank.Lower.Post			L.Shank.Upper.Ant			L.Ankle.Lat			L.Ankle.Med			L.Heel.Upper			L.Heel.Med			L.Heel.Lat			L.Toe.Lat			L.Toe.Med			L.Toe.Tip			Cervical.Spine			Back			
		X1	Y1	Z1	X2	Y2	Z2	X3	Y3	Z3	X4	Y4	Z4	X5	Y5	Z5	X6	Y6	Z6	X7	Y7	Z7	X8	Y8	Z8	X9	Y9	Z9	X10	Y10	Z10	X11	Y11	Z11	X12	Y12	Z12	X13	Y13	Z13	X14	Y14	Z14	X15	Y15	Z15	X16	Y16	Z16	X17	Y17	Z17	X18	Y18	Z18	X19	Y19	Z19	X20	Y20	Z20	X21	Y21	Z21	X22	Y22	Z22	X23	Y23	Z23	X24	Y24	Z24	X25	Y25	Z25	X26	Y26	Z26	X27	Y27	Z27	X28	Y28	Z28	X29	Y29	Z29	X30	Y30	Z30	X31	Y31	Z31	X32	Y32	Z32	X33	Y33	Z33	X34	Y34	Z34	X35	Y35	Z35	X36	Y36	Z36	X37	Y37	Z37	X38	Y38	Z38	X39	Y39	Z39	X40	Y40	Z40	X41	Y41	Z41	X42	Y42	Z42	X43	Y43	Z43	X44	Y44	Z44	X45	Y45	Z45	X46	Y46	Z46	X47	Y47	Z47	X48	Y48	Z48	X49	Y49	Z49	X50	Y50	Z50	X51	Y51	Z51	

301	1.25	357.07	1294.1	276.65	212.84	1522.1	451.16	200.06	1511.1	112.52	202.84	1838	271.26	333.08	1002.1	415.86	338.05	1014.2	166.26	124.56	1047.5	314.11	133.47	1050.2	232.06	235.33	929.16	479.93	216.05	937.18	100.22	251.88	1097.9	457.26	238.85	1102.3	118.87	105.74	1008.5	272.94	205.27	676.36	492.32	271.88	583.77	466.43	195.78	585.79	486.09	292.01	692.57	477.58	212.86	515.73	479.5	191.77	499.08	354.61	136.35	294.42	495.47	208.62	215.75	465.16	135.14	223.34	484.66	201.87	287.14	482.67	155.76	108.3	475.95	182.75	114.72	389.02	96.999	74.207	419.63	109.24	44.12	390.62	97.765	42.27	454.31	262.21	39.984	519.31	311.61	40.587	403.93	368.65	58.229	458.65	169.19	713.23	96.529	237	607.13	90.414	166.63	623.67	99.002	234.74	697.58	81.947	193.41	522.34	96.138	194.72	500.2	217.98	110.39	343.55	81.717	185.05	262.32	74.258	121.08	265.88	83.19	173.73	338.29	73.263	176.13	106.01	82.134	185.47	109.21	173.36	106.11	71.944	122.09	112.81	46.945	155.6	110.59	44.493	94.185	293.77	43.127	52.989	326.48	49.277	168.29	382.97	59.084	118.1	164.5	1555.3	286.67	98.489	1298.5	266.33
302	1.2542	357.06	1294.1	276.65	212.84	1522.1	451.16	200.05	1511.1	112.52	202.82	1838	271.26	333.08	1002.1	415.86	338.05	1014.2	166.26	124.55	1047.5	314.11	133.46	1050.2	232.06	235.34	929.16	479.93	216.05	937.18	100.22	251.89	1097.9	457.26	238.84	1102.3	118.87	105.74	1008.5	272.94	205.27	676.36	492.32	271.88	583.78	466.43	195.79	585.79	486.09	292.02	692.57	477.57	212.86	515.73	479.5	191.78	499.08	354.61	136.35	294.43	495.47	208.62	215.74	465.16	135.14	223.34	484.66	201.87	287.13	482.66	155.76	108.3	475.95	182.75	114.72	389.02	97	74.207	419.63	109.24	44.121	390.62	97.765	42.27	454.31	262.21	39.984	519.31	311.61	40.586	403.93	368.66	58.229	458.65	169.19	713.24	96.531	237	607.13	90.415	166.63	623.67	99.003	234.74	697.59	81.946	193.41	522.34	96.139	194.73	500.2	217.98	110.4	343.55	81.72	185.05	262.32	74.259	121.08	265.88	83.192	173.73	338.29	73.264	176.14	106	82.136	185.47	109.21	173.36	106.11	71.946	122.09	112.81	46.946	155.6	110.59	44.494	94.185	293.77	43.127	52.989	326.48	49.277	168.29	382.97	59.083	118.1	164.48	1555.3	286.67	98.482	1298.5	266.34
303	1.2583	357.05	1294.1	276.64	212.83	1522.1	451.16	200.03	1511.1	112.52	202.79	1838	271.26	333.08	1002.1	415.87	338.04	1014.2	166.26	124.55	1047.5	314.12	133.46	1050.2	232.07	235.34	929.16	479.93	216.04	937.18	100.23	251.89	1097.9	457.27	238.83	1102.3	118.87	105.74	1008.5	272.95	205.28	676.36	492.32	271.89	583.78	466.43	195.79	585.79	486.1	292.03	692.57	477.57	212.87	515.74	479.51	191.78	499.09	354.61	136.36	294.43	495.47	208.62	215.74	465.16	135.14	223.34	484.66	201.88	287.13	482.66	155.76	108.3	475.95	182.75	114.72	389.02	97	74.208	419.63	109.24	44.121	390.62	97.765	42.27	454.3	262.21	39.984	519.31	311.62	40.586	403.93	368.66	58.229	458.65	169.19	713.24	96.532	237	607.13	90.416	166.63	623.67	99.005	234.74	697.59	81.946	193.41	522.34	96.141	194.73	500.2	217.98	110.4	343.55	81.723	185.05	262.32	74.26	121.08	265.88	83.193	173.74	338.29	73.265	176.14	106	82.138	185.47	109.21	173.36	106.11	71.947	122.09	112.81	46.946	155.6	110.59	44.495	94.185	293.77	43.127	52.989	326.48	49.278	168.29	382.97	59.083	118.1	164.47	1555.3	286.67	98.475	1298.5	266.34
304	1.2625	357.05	1294.1	276.64	212.83	1522.1	451.16	200.01	1511.1	112.52	202.76	1838	271.26	333.08	1002.1	415.87	338.04	1014.2	166.26	124.55	1047.5	314.12	133.46	1050.2	232.07	235.35	929.16	479.93	216.04	937.18	100.23	251.9	1097.9	457.27	238.83	1102.3	118.88	105.73	1008.5	272.95	205.28	676.36	492.33	271.89	583.78	466.43	195.8	585.79	486.1	292.04	692.57	477.57	212.88	515.74	479.51	191.78	499.09	354.61	136.36	294.43	495.47	208.62	215.74	465.15	135.14	223.34	484.66	201.88	287.13	482.65	155.76	108.3	475.95	182.75	114.72	389.02	97	74.209	419.63	109.24	44.122	390.62	97.765	42.271	454.3	262.21	39.984	519.3	311.62	40.586	403.92	368.66	58.229	458.64	169.19	713.24	96.533	237	607.13	90.417	166.63	623.67	99.006	234.73	697.59	81.945	193.41	522.34	96.142	194.74	500.2	217.98	110.4	343.55	81.725	185.05	262.32	74.26	121.08	265.88	83.194	173.74	338.3	73.266	176.14	106	82.14	185.47	109.2	173.36	106.11	71.948	122.09	112.81	46.946	155.6	110.59	44.495	94.185	293.78	43.128	52.989	326.48	49.278	168.29	382.97	59.083	118.1	164.45	1555.3	286.67	98.468	1298.5	266.34
305	1.2667	357.04	1294.1	276.64	212.82	1522.1	451.15	199.99	1511.1	112.52	202.73	1838	271.26	333.08	1002.1	415.87	338.03	1014.2	166.26	124.55	1047.5	314.12	133.45	1050.2	232.07	235.35	929.16	479.93	216.03	937.18	100.23	251.9	1097.9	457.27	238.82	1102.3	118.88	105.73	1008.5	272.95	205.29	676.36	492.33	271.9	583.78	466.42	195.81	585.79	486.1	292.04	692.57	477.57	212.88	515.74	479.51	191.78	499.09	354.61	136.36	294.43	495.47	208.63	215.74	465.15	135.14	223.34	484.66	201.88	287.12	482.64	155.76	108.3	475.95	182.75	114.72	389.02	97	74.209	419.63	109.24	44.122	390.62	97.765	42.271	454.3	262.21	39.984	519.3	311.62	40.586	403.92	368.66	58.229	458.64	169.19	713.24	96.534	237	607.14	90.418	166.63	623.67	99.007	234.73	697.59	81.945	193.41	522.34	96.143	194.74	500.2	217.98	110.4	343.55	81.727	185.06	262.32	74.261	121.08	265.88	83.195	173.74	338.3	73.267	176.15	106	82.142	185.48	109.2	173.36	106.11	71.949	122.09	112.81	46.946	155.6	110.59	44.496	94.185	293.78	43.128	52.989	326.48	49.278	168.29	382.97	59.082	118.1	164.44	1555.3	286.67	98.461	1298.5	266.35
